#!OML:ASF I:\Actors\actors\Patient Classification 2\Patient 1\Session 1\actor1.ASF
:FULLY-SPECIFIED
:DEGREES
161
root -0.494986 18.7284 5.30817 1.86194 -4.53484 -0.80532
lowerback 3.04586 1.2131 -0.244805
upperback 0.529676 1.63 1.63914
thorax -1.21835 0.817883 1.75117
lowerneck -11.9762 -2.52454 -2.31755
upperneck 35.2797 -3.61857 1.23693
head 14.1035 -1.71573 0.354948
rclavicle -1.02374e-014 1.39149e-014
rhumerus -14.8546 31.8506 -87.8571
rradius 72.4344
rwrist 24.4287
rhand -15.6306 -55.9894
rfingers 7.12502
rthumb 10.5565 -85.7043
lclavicle -1.02374e-014 1.39149e-014
lhumerus 8.11136 -44.5212 71.9074
lradius 65.0989
lwrist -1.63372
lhand 20.4324 -19.1333
lfingers 7.12502
lthumb 44.9377 4.39073
rfemur 0 0 0
rtibia 0
rfoot 0 0
rtoes 0
lfemur -5.16157 -4.4489 -14.2959
ltibia 21.5467
lfoot -22.7946 16.3643
ltoes -54.5706
162
root -0.490761 18.7271 5.31351 1.84899 -4.62557 -0.72867
lowerback 3.06321 1.25748 -0.138931
upperback 0.601291 1.69134 1.6182
thorax -1.15297 0.847463 1.6683
lowerneck -12.0759 -2.52018 -2.32657
upperneck 35.3139 -3.57784 1.15599
head 14.1389 -1.70859 0.32867
rclavicle 7.35503e-015 3.18055e-015
rhumerus -14.5458 31.7128 -87.9473
rradius 71.9768
rwrist 24.9657
rhand -15.0993 -56.3361
rfingers 7.12502
rthumb 11.069 -86.0242
lclavicle 7.35503e-015 3.18055e-015
lhumerus 8.38051 -44.7835 71.5837
lradius 65.0292
lwrist -1.42386
lhand 20.2756 -19.3819
lfingers 7.12502
lthumb 44.7918 4.19921
rfemur 0 0 0
rtibia 0
rfoot 0 0
rtoes 0
lfemur -5.07372 -4.44127 -14.3964
ltibia 21.4814
lfoot -22.8473 16.4044
ltoes -54.5117
163
root -0.486238 18.7261 5.31899 1.80753 -4.68075 -0.674391
lowerback 3.14635 1.27995 -0.0203128
upperback 0.670714 1.72468 1.61532
thorax -1.12577 0.863279 1.59647
lowerneck -12.1643 -2.49983 -2.33888
upperneck 35.2761 -3.5033 1.05456
head 14.1377 -1.69054 0.300268
rclavicle -2.65874e-015 3.97569e-016
rhumerus -14.5068 31.7215 -87.9578
rradius 71.9003
rwrist 25.4252
rhand -15.4266 -56.5654
rfingers 7.12502
rthumb 10.7532 -86.2702
lclavicle -2.65874e-015 3.97569e-016
lhumerus 8.63045 -44.9627 71.3148
lradius 64.9883
lwrist -1.46044
lhand 20.091 -19.573
lfingers 7.12502
lthumb 44.6198 4.07482
rfemur 0 0 0
rtibia 0
rfoot 0 0
rtoes 0
lfemur -4.95917 -4.49157 -14.4834
ltibia 21.4169
lfoot -22.8986 16.4742
ltoes -54.5013
164
root -0.48293 18.7252 5.32535 1.75149 -4.71519 -0.618172
lowerback 3.26724 1.283 0.0595613
upperback 0.720879 1.73185 1.6306
thorax -1.14032 0.866425 1.56493
lowerneck -12.1977 -2.48893 -2.42574
upperneck 35.2023 -3.43493 0.986454
head 14.1106 -1.68133 0.298407
rclavicle 4.87022e-015 1.55052e-014
rhumerus -14.7749 31.9232 -87.9511
rradius 72.1908
rwrist 25.6632
rhand -15.6506 -56.8601
rfingers 7.12502
rthumb 10.5372 -86.5759
lclavicle 4.87022e-015 1.55052e-014
lhumerus 8.83733 -45.1034 71.0668
lradius 65.0188
lwrist -1.45636
lhand 19.9607 -19.6162
lfingers 7.12502
lthumb 44.4985 4.07818
rfemur 0 0 0
rtibia 0
rfoot 0 0
rtoes 0
lfemur -4.84003 -4.4781 -14.5657
ltibia 21.3676
lfoot -22.8957 16.4898
ltoes -54.5594
165
root -0.479246 18.7246 5.33095 1.72989 -4.70777 -0.552185
lowerback 3.22003 1.24682 0.0369977
upperback 0.852492 1.68123 1.70498
thorax -0.980493 0.840263 1.65896
lowerneck -12.3113 -2.47492 -2.50981
upperneck 35.1072 -3.31869 0.801006
head 14.0883 -1.66632 0.25499
rclavicle -5.41688e-015 -7.95139e-015
rhumerus -15.0577 32.3939 -87.7905
rradius 72.7594
rwrist 25.6699
rhand -15.6124 -57.2473
rfingers 7.12502
rthumb 10.5741 -86.9613
lclavicle -5.41688e-015 -7.95139e-015
lhumerus 9.21482 -45.0458 70.7745
lradius 65.0566
lwrist -1.0466
lhand 20.4187 -19.5042
lfingers 7.12502
lthumb 44.9249 4.02484
rfemur 0 0 0
rtibia 0
rfoot 0 0
rtoes 0
lfemur -4.80116 -4.35578 -14.6415
ltibia 21.35
lfoot -22.8135 16.3945
ltoes -54.643
166
root -0.474271 18.7253 5.33547 1.78704 -4.65007 -0.528949
lowerback 2.80772 1.16547 -0.0642389
upperback 1.15474 1.56229 1.84895
thorax -0.443355 0.777513 1.88115
lowerneck -12.5743 -2.43446 -2.42935
upperneck 34.9242 -3.12235 0.386938
head 14.0497 -1.62489 0.101404
rclavicle 9.98893e-015 1.82882e-014
rhumerus -15.1202 33.0893 -87.3628
rradius 73.5209
rwrist 25.5802
rhand -16.2628 -57.7173
rfingers 7.12502
rthumb 9.94663 -87.4623
lclavicle 9.98893e-015 1.82882e-014
lhumerus 9.93231 -44.742 70.3021
lradius 65.0234
lwrist -0.580773
lhand 20.8532 -19.3631
lfingers 7.12502
lthumb 45.329 4.00564
rfemur 0 0 0
rtibia 0
rfoot 0 0
rtoes 0
lfemur -4.8813 -4.28071 -14.6703
ltibia 21.3585
lfoot -22.7153 16.3214
ltoes -54.7511
167
root -0.469098 18.7259 5.34125 1.8499 -4.54637 -0.559533
lowerback 3.25852 1.15798 0.278158
upperback 0.849753 1.57148 1.73982
thorax -0.996152 0.784984 1.56317
lowerneck -12.3076 -2.45551 -2.31585
upperneck 35.0638 -3.16058 0.290895
head 14.049 -1.64077 0.039871
rclavicle -2.4202e-014 -1.78906e-014
rhumerus -16.5474 33.3359 -87.7826
rradius 74.5235
rwrist 25.7763
rhand -17.6823 -57.9097
rfingers 7.12502
rthumb 8.57697 -87.7155
lclavicle -2.4202e-014 -1.78906e-014
lhumerus 9.63008 -45.0924 70.3095
lradius 65.0732
lwrist -0.373989
lhand 20.7985 -19.2804
lfingers 7.12502
lthumb 45.2782 4.10871
rfemur 0 0 0
rtibia 0
rfoot 0 0
rtoes 0
lfemur -4.98012 -4.28825 -14.6491
ltibia 21.3913
lfoot -22.6553 16.2799
ltoes -54.8306
168
root -0.464747 18.7256 5.34848 1.84366 -4.40333 -0.572039
lowerback 3.32481 1.05788 0.420726
upperback 0.856729 1.44354 1.73988
thorax -1.0193 0.720758 1.48741
lowerneck -12.2776 -2.42344 -2.38325
upperneck 35.0922 -3.09789 0.295219
head 14.0558 -1.62257 0.0632671
rclavicle 5.06901e-015 4.77083e-015
rhumerus -17.5547 33.936 -87.8694
rradius 75.6043
rwrist 25.9997
rhand -17.7779 -57.9923
rfingers 7.12502
rthumb 8.48468 -87.8018
lclavicle 5.06901e-015 4.77083e-015
lhumerus 9.70619 -44.9923 70.1373
lradius 65.0892
lwrist -0.382402
lhand 20.5871 -19.3235
lfingers 7.12502
lthumb 45.0816 4.14384
rfemur 0 0 0
rtibia 0
rfoot 0 0
rtoes 0
lfemur -5.01362 -4.32206 -14.6492
ltibia 21.4457
lfoot -22.6561 16.1647
ltoes -54.7612
169
root -0.462061 18.7249 5.356 1.82038 -4.25976 -0.586622
lowerback 2.94786 0.881965 0.354655
upperback 1.18237 1.19673 1.86973
thorax -0.47309 0.595391 1.67731
lowerneck -12.4682 -2.32111 -2.4093
upperneck 34.9196 -2.85739 0.0854003
head 14.013 -1.54996 0.0187425
rclavicle 4.17448e-015 7.55382e-015
rhumerus -18.0688 34.7824 -87.6407
rradius 76.7549
rwrist 26.1372
rhand -17.0787 -58.1903
rfingers 7.12502
rthumb 9.15939 -87.9714
lclavicle 4.17448e-015 7.55382e-015
lhumerus 10.2755 -44.4683 69.7173
lradius 65.0429
lwrist -0.467197
lhand 20.5108 -19.3194
lfingers 7.12502
lthumb 45.0106 4.17594
rfemur 0 0 0
rtibia 0
rfoot 0 0
rtoes 0
lfemur -5.02456 -4.34851 -14.6412
ltibia 21.5073
lfoot -22.6801 16.0078
ltoes -54.6772
